<?xml version="1.0" encoding="utf-8"?>
<!-- Generator: Adobe Illustrator 19.2.1, SVG Export Plug-In . SVG Version: 6.00 Build 0)  -->
<svg version="1.1" id="layer" xmlns="http://www.w3.org/2000/svg" xmlns:xlink="http://www.w3.org/1999/xlink" x="0px" y="0px"
	 viewBox="0 0 652 652" style="enable-background:new 0 0 652 652;" xml:space="preserve">
<style type="text/css">
	.st0{fill:#72726E;}
	.st1{fill:#D20E1B;}
</style>
<path class="st0" d="M394.3,389c-1.7-0.3-3.6-1.9-3.6-4.4v-34.5h-5.4v35.2c0,5.1,3.6,6.8,5.4,7.3L394.3,389z M375,374.7l-0.1,0.7
	h-13.6c0.7-3.7,4.4-6.3,7.7-6.3C372.7,369.1,375,372,375,374.7 M380.5,374.5c0-4.9-4.2-10-11.7-10c-6.3,0-13.4,4.9-13.4,13.9
	c0,8.2,6.8,13.8,14.5,13.8c3.6,0,6.1-0.7,8-1.7l0.6-5.1c-1.9,1.2-4.4,2.2-7.9,2.2c-6.3,0-9.4-4.6-9.6-7.9h16.3l3-3
	C380.4,376.1,380.5,375.4,380.5,374.5 M354.2,365.2h-5.1l-4.9,11.8c-0.7,1.7-1.5,4-2.1,6H342c-0.7-2-1.4-4.3-2.1-6l-4.9-11.8h-5.5
	l11.3,26.9h2.2L354.2,365.2z M322.2,381.8c0,3.6-2.8,5.9-6,5.9c-2.4,0-4-1.7-4-3.6c0-1.9,1.4-4,4.8-4.3l5.2-0.5V381.8z M330.6,388.8
	c-1.7-0.3-3-1.7-3-4.1v-10.7c0-6.2-4.4-9.6-10.4-9.6c-3.3,0-6.4,0.7-8.8,2.3l1.1,4.4c2-1.3,4.8-2.1,7.4-2.1c3.8,0,5.2,1.9,5.2,4.3
	v1.7l-6.3,0.6c-4.6,0.4-8.9,3.3-8.9,8.4c0,4.3,3.3,8.1,8.7,8.1c3.1,0,6-1.1,7.2-4.1c0.4,2.2,2.4,3.7,4.3,4.1L330.6,388.8z
	 M307.6,365.2c-0.6-0.2-1.8-0.4-2.6-0.4c-3.8,0-6.8,1.9-7.8,5.7h-0.1v-5.4h-5.4v26.4h5.4v-13.3c0-6.1,3.7-7.7,7.2-7.7
	c0.8,0,1.5,0.1,2,0.2L307.6,365.2z M292.3,359.2v-4.8h-30.2v4.8h12.2v32.3h5.8v-32.3H292.3z M620.4,384.2c0-4.5-3-6.9-8.3-8.8
	c-2.6-0.9-3.8-1.7-3.8-3.3c0-1.7,1.4-2.9,3.6-2.9c2.9,0,4.7,0.9,6,1.7l1.1-4.4c-1-0.6-3.9-1.7-7-1.7c-5.3,0-8.9,3.1-8.9,7.5
	c0,4.2,3,6.6,8.2,8.4c2.4,0.9,3.8,1.9,3.8,3.7c0,1.7-1.7,3-4.2,3c-3.2,0-6.3-1.4-8.3-3l0.7,5.5c1.9,1.2,4.4,1.9,7.5,1.9
	C617.1,391.9,620.4,388.4,620.4,384.2 M598.1,391.6v-17.5c0-5.9-4.3-9.5-10.2-9.5c-4.7,0-7.2,1.7-8.3,4.1h-0.1v-3.4h-4.9v26.4h5.4
	v-17c0-2.7,2.1-5.5,6.5-5.5c4.5,0,6.3,2.8,6.3,5.5v17H598.1z M564.9,378.5c0,5.5-4.1,9.1-8.8,9.1c-4.8,0-8.9-3.7-8.9-9.1
	c0-5.5,4.1-9.2,8.9-9.2C560.8,369.3,564.9,373,564.9,378.5 M570.4,378.4c0-8.2-6.3-13.9-14.3-13.9c-8,0-14.4,5.7-14.4,13.9
	c0,8.2,6.3,13.8,14.4,13.8C564.1,392.2,570.4,386.5,570.4,378.4 M537,365.2h-5.5v26.4h5.5V365.2z M537.6,356.8
	c0-1.1-2.1-3.2-3.3-3.2c-1.1,0-3.3,2.1-3.3,3.2c0,1,2.2,3.2,3.3,3.2C535.4,360,537.6,357.9,537.6,356.8 M528.3,365.2h-9.5v-8.1
	l-5.4,2.7v5.4h-5.3v4.3h5.3V384c0,5.1,3.9,7.9,8.8,7.9c1.1,0,2.3-0.1,3-0.5l0.5-4.2c-0.7,0.2-1.5,0.3-2.4,0.3
	c-2.9,0-4.5-1.1-4.5-4.1v-14h8.6L528.3,365.2z M505.4,391.6v-26.4H500v17c0,2.7-2.1,5.5-6.5,5.5c-4.5,0-6.3-2.8-6.3-5.5v-17h-5.4
	v17.5c0,5.9,4.4,9.6,10.3,9.6c4.7,0,7.1-1.7,8.3-4.1h0.1v3.4H505.4z M478.6,389c-1.7-0.3-3.6-1.9-3.6-4.4v-34.5h-5.4v35.2
	c0,5.1,3.6,6.8,5.4,7.3L478.6,389z M459.6,378.5c0,5.5-4.1,9.1-8.8,9.1c-4.8,0-8.9-3.7-8.9-9.1c0-5.5,4.1-9.2,8.9-9.2
	C455.5,369.3,459.6,373,459.6,378.5 M465,378.4c0-8.2-6.3-13.9-14.3-13.9c-8,0-14.4,5.7-14.4,13.9c0,8.2,6.3,13.8,14.4,13.8
	C458.8,392.2,465,386.5,465,378.4 M433.1,380.9c0-6.6-4.4-9.6-10.9-11.7c-3.9-1.3-6-2.9-6-5.6c0-2.6,2.3-4.9,6.1-4.9
	c3,0,5.9,1.2,7.3,2.2l1.1-4.7c-1.4-1-4.5-2.1-8.2-2.1c-8,0-11.9,4.8-11.9,10c0,5.4,3.5,8.7,10.2,10.8c4.5,1.4,6.4,3.3,6.4,6.6
	c0,3.3-2.7,5.5-6.9,5.5c-4,0-7.9-1.4-10.6-3.4l0.7,5.9c2,1.3,5.6,2.4,9.7,2.4C428.6,391.8,433.1,387.4,433.1,380.9"/>
<path class="st1" d="M233.9,283h-17.1l-8.4,21.8c-1.3,3.2-2.5,7.2-3.7,11h-0.3c-0.9-4-2.1-7.8-3.4-11l-8.4-21.8h-18l20.6,52.2
	c-4.7,11.9-11.8,18.4-21,21.9l11.4,11.1c10.8-4.1,19.9-12.2,28.6-34.8L233.9,283z M174.7,322c0-9.4-5.3-15.7-18.2-19.1
	c-3.5-0.9-5.1-2-5.1-4.1c0-2.2,2-3.6,5.1-3.6c4.6,0,9.1,1.6,11.9,3.1l3.2-13.4c-2.9-1.5-9.9-3.3-17-3.3c-12.4,0-21.5,7.1-21.5,18.1
	c0,9.8,6.6,15.2,17.6,18.3c3.3,1,5.2,2,5.2,4.3c0,2.1-2.2,3.8-5.6,3.8c-6.3,0-12.9-2.6-18-6.1l1.6,16.1c4.7,2.4,10.4,4,18.2,4
	C167.6,340.2,174.7,331.6,174.7,322 M104.3,319.5c0,4.8-3.7,8.2-8.1,8.2c-3.5,0-5.8-2.5-5.8-5.4c0-3.3,2.2-6.7,7-7.1l7-0.6V319.5z
	 M129.2,331.3c-4.4-1.6-7-5.1-7-11.6v-18.3c0-13.5-10.8-20.3-26-20.3c-7.6,0-15.4,2-20.1,4.9l3.3,13.7c4.2-2.6,10.4-4.3,16-4.3
	c6.2,0,9,2.2,9,5.6v1.9L93,304c-11.4,1.1-19.6,8-19.6,18.3c0,11.6,9,18.6,19.1,18.6c7,0,12.4-2.2,14.9-6.8c1.5,4.1,5.4,6.7,8.9,7.4
	L129.2,331.3z M71.2,339v-15.7H40.3v-15.8h22.3v-16.1H40.3v-15.6h27.1v-15.7H21V339H71.2z M621,283h-18.5v-18.6l-18.5,6.6v12h-9.6
	v14.8h9.6V322c0,11.1,7.7,17.8,20.6,17.8c3.7,0,6.8-0.6,8.6-1.5l1.6-13.7c-1.4,0.6-2.7,0.7-4.8,0.7c-4.9,0-7.6-2-7.6-6.8v-20.8h14.9
	L621,283z M556.3,302.6c0,0.5-0.1,0.9-0.1,1.2h-19.4c1.1-5.1,5.7-9.2,11.1-9.2C552.9,294.7,556.3,298.8,556.3,302.6 M573.7,303.5
	c0-11.6-9.7-22.4-25.7-22.4c-16.5,0-29.9,11.5-29.9,29.6c0,18.3,14,30.2,31.5,30.2c7.3,0,13.9-1.5,18.2-3.7l1.8-15.6
	c-3.8,2.5-9.9,4.2-15.8,4.2c-9.8,0-16.1-5.2-17-9.8H565l8.2-8.2C573.4,306.7,573.7,304.8,573.7,303.5 M521.8,339l-21.3-28.8
	l20.1-27.2h-20.3l-17.2,22.8H483v-54.8h-18.4V339H483v-22.6h0.1l17,22.6H521.8z M461.4,282.7c-1.4-0.5-3.5-0.7-5.3-0.7
	c-7.7,0-14.4,4.7-16.3,13.5h-0.1V283h-18.4v56h18.6v-26.1c0-8.9,5.4-12,11.4-12c1.9,0,4.4,0.7,5.6,1.4L461.4,282.7z M393.7,319.5
	c0,4.8-3.7,8.2-8.1,8.2c-3.5,0-5.8-2.5-5.8-5.4c0-3.3,2.2-6.7,7-7.1l7-0.6V319.5z M418.5,331.3c-4.4-1.6-7-5.1-7-11.6v-18.3
	c0-13.5-10.8-20.3-26-20.3c-7.6,0-15.4,2-20.1,4.9l3.3,13.7c4.2-2.6,10.4-4.3,15.9-4.3c6.2,0,9,2.2,9,5.6v1.9l-11.4,1.1
	c-11.4,1.1-19.6,8-19.6,18.3c0,11.6,9,18.6,19.1,18.6c7,0,12.4-2.2,14.9-6.8c1.5,4.1,5.4,6.7,8.9,7.4L418.5,331.3z M358.7,339
	l-7.1-78.9h-15.2l-17.5,33.2c-2.7,5.2-5.8,11.6-7.8,16.8H311c-2.1-5.2-5.6-12-8.1-16.8l-17.6-33.2h-16.2l-7,78.9h18.2l2.5-29.1
	c0.4-4.2,0.6-9.4,0.6-14.5h0.3c2,5.1,4.4,10.3,6.8,14.7l15.4,29.1h7.8l15.2-29.1c2.3-4.5,4.9-9.9,6.8-14.8h0.3
	c0,5.1,0.4,10.3,0.8,14.6l2.7,29.1H358.7z"/>
</svg>
